# xmcd
#
# Track frame offsets: 
#        150
#        31855
#        46457
#        61658
#        81773
#        100620
#
# Disc length: 1631 seconds
#
# Revision: 0
# Processed by: cddbd v1.5.2PL0 Copyright (c) Steve Scherf et al.
# Submitted via: ExactAudioCopy v0.99pb4
#
DISCID=3b065d06
DTITLE=Eddie Harris - Plug Me In
DYEAR=1968
DGENRE=Jazz
TTITLE0=Live Right Now
TTITLE1=It's Crazy
TTITLE2=Ballad (For My Love)
TTITLE3=Lovely Is Today
TTITLE4=Theme In Search Of A T.V. Commercial
TTITLE5=Winter Meeting
EXTD=
EXTT0=
EXTT1=
EXTT2=
EXTT3=
EXTT4=
EXTT5=
PLAYORDER=
